PathFileType	4	(X/Y/Z)	C:\Users\WrightLab\Desktop\Jo\P4V130.trc
DataRate	CameraRate	NumFrames	NumMarkers	Units	OrigDataRate	OrigDataStartFrame	OrigNumFrames
100.00	100.00	       8	19	mm	100.00	253	       672
Frame#	Time	Headset_Front			Headset_Back			Headset_Left			Headset_Right			Left_Shoulder			Right_Shoulder			Sternum			C7			Left Elbow			Right Elbow			Left Wrist			Right Wrist			Left ASIS			Right ASIS			S2			Left Knee			Right Knee			Left Ankle			Right Ankle			
		X1	Y1	Z1	X2	Y2	Z2	X3	Y3	Z3	X4	Y4	Z4	X5	Y5	Z5	X6	Y6	Z6	X7	Y7	Z7	X8	Y8	Z8	X9	Y9	Z9	X10	Y10	Z10	X11	Y11	Z11	X12	Y12	Z12	X13	Y13	Z13	X14	Y14	Z14	X15	Y15	Z15	X16	Y16	Z16	X17	Y17	Z17	X18	Y18	Z18	X19	Y19	Z19	

253	2.520	-232.25957	1139.17065	-563.84631	-362.19608	1491.12268	-579.89380							-613.80573	1683.88464	-498.22928	-660.02783	1499.27222	-638.88623	-524.41113	1434.95764	-501.19800	-506.04431	1526.04553	-668.95172				-809.51990	1151.41235	-659.17505	-289.56604	852.16437	-451.93756	-840.41168	888.93567	-499.77823	-397.10110	989.38171	-498.79630	-724.97729	1010.01892	-561.62732				-469.59665	520.42212	-427.18042	-790.32104	531.44775	-610.00244	-604.06989	39.77328	-474.01459				
254	2.530	-232.32623	1141.29724	-554.14410	-361.67673	1492.97803	-572.55859							-613.08936	1686.00024	-486.97113	-660.73120	1501.12439	-627.33777	-524.78900	1437.19690	-492.25159	-507.10138	1527.88538	-658.54175				-809.61108	1153.04895	-647.70129	-289.32858	854.45209	-439.67700	-839.62555	888.84027	-490.95908	-395.17542	990.85608	-489.87439	-722.67145	1012.33032	-548.73376				-470.10269	519.99341	-423.15292	-792.63513	534.06738	-585.25769	-605.15778	40.18985	-473.63824				
255	2.540	-232.19299	1143.30151	-544.55762	-363.01468	1495.01929	-563.02478							-397.27560	1687.53967	-557.35199	-661.58478	1502.71448	-616.29651	-521.90692	1436.90564	-480.18549	-508.06552	1529.97412	-649.27850				-809.83594	1154.83801	-635.39862	-288.72305	857.48242	-427.97281	-839.02899	889.82312	-480.76376	-393.27972	992.53723	-481.91956	-721.59082	1013.56696	-538.14209				-468.39584	520.29828	-420.14624	-794.43988	537.25018	-560.95245	-605.50745	39.90862	-473.34216				
256	2.550	-232.02431	1146.33545	-535.00006	-362.59418	1496.86182	-555.86896							-396.94891	1689.12646	-548.23523	-662.36719	1504.43262	-605.28485	-524.95520	1441.20996	-473.81345	-509.01587	1531.85547	-639.50311				-810.05530	1156.19702	-623.39136	-288.62793	861.14368	-415.61313	-837.33728	889.89313	-470.94565	-392.41647	993.04834	-473.99353	-719.24884	1015.46783	-527.88275				-469.48141	519.49829	-417.63074	-795.32471	540.88330	-537.63763	-603.77954	40.79129	-473.26990				
257	2.560	-232.62383	1147.93896	-525.54059	-362.06113	1498.74023	-548.45355							-610.74121	1692.02319	-455.89648	-662.36957	1506.13428	-594.66644	-518.31244	1440.43250	-460.40939	-509.89014	1533.94360	-630.41858				-810.31262	1157.60889	-611.53424	-288.17026	864.33002	-403.82242	-836.46997	891.11005	-460.83200	-389.76968	994.75464	-464.91898	-719.59387	1019.14178	-511.58649				-467.61172	519.95282	-414.37714	-795.13849	544.53729	-512.88324	-603.86566	40.79280	-473.65149				
258	2.570	-232.21104	1150.80811	-516.56415	-361.95139	1501.71130	-537.03198							-396.18369	1692.18787	-530.89722	-663.28949	1507.93970	-583.93127	-516.70862	1442.21533	-450.88382	-510.82663	1535.84863	-621.29706				-810.54749	1159.00537	-600.24225	-287.75241	867.94702	-391.34610	-834.43579	891.87708	-450.10892	-387.88431	996.63586	-456.50473	-717.37292	1022.66254	-498.47006				-466.72461	519.51019	-411.67502	-794.29333	548.12408	-488.06213	-603.87421	40.70924	-473.69443				
259	2.580	-232.37914	1153.64795	-507.77451	-362.79044	1504.20825	-533.34613							-395.88840	1693.97388	-521.49176	-663.61481	1509.36694	-572.69781	-517.00568	1444.85254	-441.91412	-511.85187	1537.36682	-611.75269				-810.54498	1160.63599	-588.77875	-287.41473	872.14917	-379.03790	-833.91272	892.25012	-439.82224	-386.06387	996.48566	-451.25189	-715.94653	1025.41492	-488.40573				-466.15524	518.32642	-409.67731	-793.18878	552.58752	-464.89673	-604.12933	40.12445	-473.88190	-677.74365	253.82114	-841.26935	
260	2.590	-232.30661	1156.03687	-498.49371	-361.81940	1505.31921	-522.89099							-608.43304	1697.79590	-426.10342	-663.80408	1510.92944	-561.97021	-516.58899	1447.15674	-433.21936	-512.62018	1538.88123	-602.73102				-810.73981	1162.42529	-577.84552	-286.99854	875.84589	-366.88239	-832.80035	893.68579	-430.61642	-385.23965	997.48706	-445.33704	-714.72943	1030.66406	-463.76321				-463.98257	519.02954	-406.49756	-791.84381	556.45917	-441.04868	-604.14679	40.06046	-473.91324	-687.80389	252.03586	-819.61700	
